# xmcd
#
# Track frame offsets: 
#        150
#        18000
#        28009
#        39062
#        53580
#        71907
#        83520
#        99300
#        109875
#        123165
#        139072
#        151827
#        173447
#        186857
#        203247
#        222109
#        242272
#        262577
#        282107
#        302487
#
# Disc length: 4185 seconds
#
# Revision: 4
# Processed by: cddbd v1.5.2PL0 Copyright (c) Steve Scherf et al.
# Submitted via: ExactAudioCopy v0.99pb4
#
DISCID=ed105714
DTITLE=Willie Nelson - Songs
DYEAR=2005
DGENRE=Country
TTITLE0=Crazy (Original Demo)
TTITLE1=Touch Me
TTITLE2=Good Times
TTITLE3=Yesterday's Wine
TTITLE4=Whiskey River
TTITLE5=Stay All Night (Stay a Little Longer)
TTITLE6=It's Not Supposed to Be That Way
TTITLE7=Blue Eyes Crying in the Rain
TTITLE8=Good Hearted Woman
TTITLE9=Always on My Mind
TTITLE10=Just to Satisfy You
TTITLE11=Pancho and Lefty
TTITLE12=She Is Gone
TTITLE13=My Own Peculiar Way
TTITLE14=Funny How Time Slips Away
TTITLE15=Night Life
TTITLE16=Rainbow Connection
TTITLE17=Don't Fade Away
TTITLE18=Mendocino County Line
TTITLE19=On the Road Again
EXTD=
EXTT0=
EXTT1=
EXTT2=
EXTT3=
EXTT4=
EXTT5=
EXTT6=
EXTT7=
EXTT8=
EXTT9=
EXTT10=
EXTT11=
EXTT12=
EXTT13=
EXTT14=
EXTT15=
EXTT16=
EXTT17=
EXTT18=
EXTT19=
PLAYORDER=
